<svg width="1278" height="158" viewBox="0 0 1278 158" fill="none" xmlns="http://www.w3.org/2000/svg">
<path d="M1196.45 154.55H81.5111C38.3404 154.55 3.3208 120.712 3.3208 78.9973C3.3208 37.283 38.3404 3.44482 81.5111 3.44482H1196.45C1239.62 3.44482 1274.64 37.283 1274.64 78.9973C1274.64 120.712 1239.62 154.55 1196.45 154.55Z" fill="#009939"/>
<path style="mix-blend-mode:color-burn" d="M1196.45 154.55H81.5111C38.3404 154.55 3.3208 120.712 3.3208 78.9973C3.3208 37.283 38.3404 3.44482 81.5111 3.44482H1196.45C1239.62 3.44482 1274.64 37.283 1274.64 78.9973C1274.64 120.712 1239.62 154.55 1196.45 154.55Z" fill="url(#paint0_linear_152_39)"/>
<path style="mix-blend-mode:color-dodge" d="M1196.45 154.55H81.5111C38.3404 154.55 3.3208 120.712 3.3208 78.9973C3.3208 37.283 38.3404 3.44482 81.5111 3.44482H1196.45C1239.62 3.44482 1274.64 37.283 1274.64 78.9973C1274.64 120.712 1239.62 154.55 1196.45 154.55Z" fill="url(#paint1_radial_152_39)" fill-opacity="0.5"/>
<path style="mix-blend-mode:screen" d="M1202.99 14.238H74.9701C60.4089 14.238 48.6047 25.644 48.6047 39.7139V42.7282C48.6047 56.7981 60.4089 68.2041 74.9701 68.2041H1202.99C1217.55 68.2041 1229.36 56.7981 1229.36 42.7282V39.7139C1229.36 25.644 1217.55 14.238 1202.99 14.238Z" fill="url(#paint2_linear_152_39)"/>
<path d="M1196.45 157.759H81.5111C36.5794 157.759 0 122.413 0 78.9973C0 35.5814 36.5794 0.236084 81.5111 0.236084H1196.45C1241.38 0.236084 1277.96 35.5814 1277.96 78.9973C1277.96 122.413 1241.43 157.759 1196.45 157.759ZM81.5111 6.60505C40.2021 6.60505 6.59133 39.0819 6.59133 78.9973C6.59133 118.913 40.2021 151.39 81.5111 151.39H1196.45C1237.76 151.39 1271.37 118.913 1271.37 78.9973C1271.37 39.0819 1237.76 6.60505 1196.45 6.60505H81.5111Z" fill="white"/>
<defs>
<linearGradient id="paint0_linear_152_39" x1="639.007" y1="7.91768" x2="639.007" y2="160.967" gradientUnits="userSpaceOnUse">
<stop stop-color="white"/>
<stop offset="0.2" stop-color="#FBFBFB"/>
<stop offset="0.37" stop-color="#F1F1F1"/>
<stop offset="0.53" stop-color="#E0E0E0"/>
<stop offset="0.68" stop-color="#C7C7C7"/>
<stop offset="0.82" stop-color="#ABABAB"/>
<stop offset="1" stop-color="white"/>
</linearGradient>
<radialGradient id="paint1_radial_152_39" cx="0" cy="0" r="1" gradientUnits="userSpaceOnUse" gradientTransform="translate(651.435 215.76) scale(592.566 572.575)">
<stop offset="0.17" stop-color="#858585"/>
<stop offset="0.36" stop-color="#575757"/>
<stop offset="0.55" stop-color="#313131"/>
<stop offset="0.73" stop-color="#161616"/>
<stop offset="0.88" stop-color="#050505"/>
<stop offset="1"/>
</radialGradient>
<linearGradient id="paint2_linear_152_39" x1="639.007" y1="98.2014" x2="639.007" y2="5.82711" gradientUnits="userSpaceOnUse">
<stop/>
<stop offset="0.14" stop-color="#020301"/>
<stop offset="0.27" stop-color="#090F05"/>
<stop offset="0.39" stop-color="#16220B"/>
<stop offset="0.51" stop-color="#273C14"/>
<stop offset="0.63" stop-color="#3D5F20"/>
<stop offset="0.75" stop-color="#59892E"/>
<stop offset="0.87" stop-color="#79BB3F"/>
<stop offset="0.98" stop-color="#9DF452"/>
<stop offset="1" stop-color="#A5FF56"/>
</linearGradient>
</defs>
</svg>
