<svg width="186" height="211" viewBox="0 0 186 211" fill="none" xmlns="http://www.w3.org/2000/svg">
<g id="Camada_1" clip-path="url(#clip0_101_21)">
<path id="Vector" d="M141.222 126.601C141.222 99.4167 119.626 77.3672 93 77.3672C66.3744 77.3672 44.7778 99.4167 44.7778 126.601C44.7778 153.784 66.3744 175.834 93 175.834C119.626 175.834 141.222 153.784 141.222 126.601ZM51.6667 126.601C51.6667 103.285 70.1633 84.4005 93 84.4005C115.837 84.4005 134.333 103.285 134.333 126.601C134.333 149.916 115.837 168.801 93 168.801C70.1633 168.801 51.6667 149.916 51.6667 126.601Z" fill="#FBE8CF"/>
<path id="Vector_2" d="M115.596 108.454C110.946 104.234 103.85 104.621 99.6822 109.298L86.49 124.244L83.0456 120.727C78.6022 116.261 71.4722 116.331 67.0978 120.868C62.7233 125.404 62.7922 132.684 67.2356 137.15L78.9467 149.142C83.4244 153.643 90.6233 153.573 95.0322 149.001C95.1356 148.895 95.2389 148.79 95.3078 148.684L116.422 124.736C120.59 119.988 120.211 112.744 115.596 108.454ZM111.29 119.988L90.1756 143.937C88.5222 145.73 85.7322 145.801 83.9755 144.078C83.9067 144.042 83.8722 143.972 83.8378 143.937L72.0922 131.98C70.4044 130.222 70.4044 127.409 72.0922 125.65C73.78 123.892 76.57 123.892 78.2922 125.65L84.1822 131.664C85.4911 133.07 87.6611 133.141 89.0389 131.804C89.0733 131.769 89.1078 131.734 89.1767 131.664L104.78 114.08C106.399 112.252 109.154 112.111 110.946 113.764C112.737 115.417 112.874 118.23 111.29 120.059V119.988Z" fill="#FBE8CF"/>
<path id="Vector_3" d="M168.778 14.0667H158.444V12.3083C158.444 5.52117 153.037 0 146.389 0C139.741 0 134.333 5.52117 134.333 12.3083V14.0667H105.056V12.3083C105.056 5.52117 99.6478 0 93 0C86.3522 0 80.9444 5.52117 80.9444 12.3083V14.0667H51.6667V12.3083C51.6667 5.52117 46.2589 0 39.6111 0C32.9633 0 27.5556 5.52117 27.5556 12.3083V14.0667H17.2222C7.71556 14.0667 0 21.944 0 31.65V140.667C0 142.601 1.55 144.183 3.44444 144.183C5.33889 144.183 6.88889 142.601 6.88889 140.667V63.3H179.111V147.7C179.111 149.634 177.561 151.217 175.667 151.217H158.444C148.938 151.217 141.222 159.094 141.222 168.8V186.383C141.222 188.318 139.672 189.9 137.778 189.9L17.2222 189.689C11.5044 189.689 6.88889 184.977 6.88889 179.139V168.8C6.88889 166.866 5.33889 165.283 3.44444 165.283C1.55 165.283 0 166.866 0 168.8V193.417C0 203.123 7.71556 211 17.2222 211H168.778C178.284 211 186 203.123 186 193.417V31.65C186 21.944 178.284 14.0667 168.778 14.0667ZM141.222 12.3083C141.222 9.3895 143.53 7.03333 146.389 7.03333C149.248 7.03333 151.556 9.3895 151.556 12.3083V26.375C151.556 29.2938 149.248 31.65 146.389 31.65C143.53 31.65 141.222 29.2938 141.222 26.375V12.3083ZM87.8333 12.3083C87.8333 9.3895 90.1411 7.03333 93 7.03333C95.8589 7.03333 98.1667 9.3895 98.1667 12.3083V26.375C98.1667 29.2938 95.8589 31.65 93 31.65C90.1411 31.65 87.8333 29.2938 87.8333 26.375V12.3083ZM34.4444 12.3083C34.4444 9.3895 36.7522 7.03333 39.6111 7.03333C42.47 7.03333 44.7778 9.3895 44.7778 12.3083V26.375C44.7778 29.2938 42.47 31.65 39.6111 31.65C36.7522 31.65 34.4444 29.2938 34.4444 26.375V12.3083ZM6.88889 56.2667V31.65C6.88889 25.8123 11.5044 21.1 17.2222 21.1H27.5556V26.375C27.5556 33.1622 32.9633 38.6833 39.6111 38.6833C46.2589 38.6833 51.6667 33.1622 51.6667 26.375V21.1H80.9444V26.375C80.9444 33.1622 86.3522 38.6833 93 38.6833C99.6478 38.6833 105.056 33.1622 105.056 26.375V21.1H134.333V26.375C134.333 33.1622 139.741 38.6833 146.389 38.6833C153.037 38.6833 158.444 33.1622 158.444 26.375V21.1H168.778C174.496 21.1 179.111 25.8123 179.111 31.65V56.2667H6.88889ZM148.111 168.8C148.111 162.962 152.727 158.25 158.444 158.25H174.254L148.111 184.941V168.8ZM168.778 203.967H17.2222C11.5044 203.967 6.88889 199.254 6.88889 193.417C6.88889 193.311 6.88889 193.206 6.88889 193.1C9.85111 195.421 13.5022 196.652 17.2222 196.617L138.914 196.933C143.496 196.933 147.904 195.069 151.142 191.764L179.111 163.244V193.417C179.111 199.254 174.496 203.967 168.778 203.967Z" fill="#FBE8CF"/>
<path id="Vector_4" d="M3.44444 158.25C5.34676 158.25 6.88889 156.676 6.88889 154.733C6.88889 152.791 5.34676 151.217 3.44444 151.217C1.54213 151.217 0 152.791 0 154.733C0 156.676 1.54213 158.25 3.44444 158.25Z" fill="#FBE8CF"/>
</g>
<defs>
<clipPath id="clip0_101_21">
<rect width="186" height="211" fill="white"/>
</clipPath>
</defs>
</svg>
