<svg width="46" height="46" viewBox="0 0 46 46" fill="none" xmlns="http://www.w3.org/2000/svg">
<g id="Layer_1" clip-path="url(#clip0_24_57)">
<path id="Vector" d="M23 3.14482C33.9417 3.14482 42.8552 12.0583 42.8552 23C42.8552 33.9417 33.9417 42.8552 23 42.8552C12.0583 42.8552 3.14482 33.9417 3.14482 23C3.14482 12.0583 12.0583 3.14482 23 3.14482ZM23 0C10.2905 0 0 10.2905 0 23C0 35.7095 10.2905 46 23 46C35.7095 46 46 35.7095 46 23C46 10.2905 35.7095 0 23 0Z" fill="#A66559"/>
<path id="Vector_2" d="M35.2257 16.97C35.0583 15.3697 34.4442 13.9554 33.2532 12.8203C32.0065 11.6294 30.462 11.0897 28.7872 10.9967C25.9215 10.8478 19.1295 10.7362 16.729 11.1269C13.9935 11.5735 12.2071 13.1552 11.4628 15.8535C10.8859 17.919 10.9976 27.4837 11.3325 29.5307C11.7977 32.3405 13.4539 34.1269 16.2265 34.8527C18.1432 35.3551 27.5963 35.2807 29.7176 34.9457C32.5275 34.4991 34.3325 32.843 35.0583 30.0703C35.6165 27.9489 35.4118 18.8866 35.2257 16.97ZM32.9741 29.1399C32.6392 31.2612 31.2435 32.5824 29.1036 32.8243C27.1311 33.0476 18.3665 33.1593 16.5429 32.6569C14.7937 32.173 13.8075 30.9635 13.5097 29.2143C13.2306 27.5396 13.1562 19.1658 13.5097 16.9141C13.8261 14.8114 15.2403 13.4902 17.3617 13.2483C19.5202 13.0064 27.2799 12.9878 29.3641 13.3041C31.4854 13.6391 32.8066 15.0533 33.0299 17.1933C33.2532 19.1844 33.3091 26.9999 32.9741 29.1585V29.1399ZM23.2419 16.7839C19.7994 16.7839 16.9895 19.5752 16.9895 23.0363C16.9895 26.4789 19.7808 29.2887 23.2419 29.2887C26.7031 29.2887 29.4943 26.4975 29.4943 23.0363C29.4943 19.5938 26.7031 16.7839 23.2419 16.7839ZM23.2047 27.0743C20.9717 27.0557 19.1853 25.2321 19.2039 22.9991C19.2225 20.7661 21.0461 18.9797 23.2791 18.9983C25.5121 19.0169 27.2986 20.8405 27.2799 23.0735C27.2613 25.3065 25.4377 27.093 23.2047 27.0743ZM31.2063 16.5606C31.2063 17.3608 30.555 18.0307 29.7363 18.012C28.9361 18.012 28.2662 17.3608 28.2848 16.542C28.2848 15.7418 28.9361 15.0719 29.7549 15.0905C30.555 15.0905 31.2249 15.7418 31.2063 16.5606Z" fill="#A66559"/>
<path id="Vector_3" d="M35.2257 16.97C35.0583 15.3697 34.4442 13.9554 33.2532 12.8203C32.0065 11.6294 30.462 11.0897 28.7872 10.9967C25.9215 10.8478 19.1295 10.7362 16.729 11.1269C13.9935 11.5735 12.2071 13.1552 11.4628 15.8535C10.8859 17.919 10.9976 27.4837 11.3325 29.5307C11.7977 32.3405 13.4539 34.1269 16.2265 34.8527C18.1432 35.3551 27.5963 35.2807 29.7176 34.9457C32.5275 34.4991 34.3325 32.843 35.0583 30.0703C35.6165 27.9489 35.4118 18.8866 35.2257 16.97ZM32.9741 29.1399C32.6392 31.2612 31.2435 32.5824 29.1036 32.8243C27.1311 33.0476 18.3665 33.1593 16.5429 32.6569C14.7937 32.173 13.8075 30.9635 13.5097 29.2143C13.2306 27.5396 13.1562 19.1658 13.5097 16.9141C13.8261 14.8114 15.2403 13.4902 17.3617 13.2483C19.5202 13.0064 27.2799 12.9878 29.3641 13.3041C31.4854 13.6391 32.8066 15.0533 33.0299 17.1933C33.2532 19.1844 33.3091 26.9999 32.9741 29.1585V29.1399ZM23.2419 16.7839C19.7994 16.7839 16.9895 19.5752 16.9895 23.0363C16.9895 26.4789 19.7808 29.2887 23.2419 29.2887C26.7031 29.2887 29.4943 26.4975 29.4943 23.0363C29.4943 19.5938 26.7031 16.7839 23.2419 16.7839ZM23.2047 27.0743C20.9717 27.0557 19.1853 25.2321 19.2039 22.9991C19.2225 20.7661 21.0461 18.9797 23.2791 18.9983C25.5121 19.0169 27.2986 20.8405 27.2799 23.0735C27.2613 25.3065 25.4377 27.093 23.2047 27.0743ZM31.2063 16.5606C31.2063 17.3608 30.555 18.0307 29.7363 18.012C28.9361 18.012 28.2662 17.3608 28.2848 16.542C28.2848 15.7418 28.9361 15.0719 29.7549 15.0905C30.555 15.0905 31.2249 15.7418 31.2063 16.5606Z" fill="#A66559"/>
</g>
<defs>
<clipPath id="clip0_24_57">
<rect width="46" height="46" fill="white"/>
</clipPath>
</defs>
</svg>
