<svg width="444" height="463" viewBox="0 0 444 463" fill="none" xmlns="http://www.w3.org/2000/svg">
<path d="M98.0991 180.849C93.1193 183.57 88.717 185.32 85.034 188.121C74.4751 196.169 62.8047 199.805 49.8486 199.45C41.48 199.222 39.1263 196.684 39.5839 188.029C39.6384 187.092 39.5839 186.154 39.5839 185.194C39.159 185.24 38.7667 185.16 38.5161 185.32C28.7744 191.653 25.4074 191.528 17.3656 182.804C12.2115 177.225 7.6131 171.017 3.19995 164.764C-0.701061 159.242 0.671919 152.097 5.40108 147.181C6.89392 145.626 7.39517 142.973 8.22331 140.778C8.55021 139.921 8.22331 138.698 8.69187 138.023C12.2333 132.981 14.9575 126.35 19.7302 123.469C27.129 118.999 35.1817 114.38 45.0214 115.284C46.2854 104.183 47.8654 92.9671 48.6173 81.6832C48.7807 79.248 46.2527 76.3213 44.433 74.1034C39.1917 67.724 39.0609 66.7636 42.7222 59.6869C43.4414 58.2921 43.3978 56.1428 43.0491 54.4965C41.7633 48.4372 43.4523 45.2475 49.38 44.4929C56.3866 43.6012 63.4585 42.8924 70.5087 42.8924C72.7861 42.8924 75.7282 44.8245 77.2319 46.8138C81.5361 52.53 86.5595 53.639 92.6398 50.8609C99.374 47.7855 106.054 44.6073 114.041 40.8802C105.04 34.8438 102.523 26.4523 99.6682 18.358C97.6959 12.7789 99.6791 10.4124 105.367 11.3613C108.582 11.8986 111.753 12.7903 114.934 13.522C124.524 15.7285 133.306 13.9679 141.152 7.62281C142.154 6.8111 143.157 5.97652 144.17 5.17624C148.006 2.1466 151.504 -2.32354 157.039 1.81506C162.411 5.83933 165.146 13.8421 162.858 19.97C160.079 27.3783 161.136 34.5237 163.446 41.7148C164.689 45.5676 167.075 47.2596 170.965 46.265C172.371 45.9106 173.798 45.6476 175.171 45.1675C185.588 41.509 195.897 37.439 206.456 34.3294C210.433 33.1632 215.14 33.4948 219.259 34.4094C223.749 35.404 227.737 35.2097 230.973 32.0543C236.367 26.8067 241.826 21.502 246.425 15.5113C250.663 9.98936 254.957 9.39487 258.106 15.8428C260.547 20.8503 261.56 26.6009 263.521 31.8942C264.317 34.0321 265.755 36.0328 267.281 37.702C270.964 41.7491 276.194 44.8702 278.428 49.6033C284.28 61.9734 294.326 67.4267 305.844 71.7825C313.646 74.7321 321.23 78.5278 328.553 82.6435C335.995 86.8393 336.366 88.2569 336.224 97.2658C348.788 92.7842 360.513 96.9342 372.325 100.57C374.918 101.37 377.664 101.747 380.366 102.022C388.452 102.833 395.197 106.057 400.885 112.414C408.284 120.68 417.143 126.83 427.418 130.855C438.152 135.051 441.519 145.008 443.131 155.675C444.504 164.752 442.205 173.041 436.822 180.346C431.603 187.423 426.285 194.409 421.175 201.565C417.807 206.276 414.658 211.169 411.564 216.085C408.218 221.401 404.143 225.608 397.714 225.848C394.325 225.974 393.257 227.94 393.028 230.867C392.331 239.773 391.023 248.713 391.241 257.608C391.612 272.848 387.874 286.658 380.083 299.257C372.88 310.895 365.471 322.408 357.636 333.578C351.381 342.484 342.348 345.627 332.072 343.764C326.395 342.735 321.274 343.512 316.327 346.371C308.383 350.967 300.581 355.837 292.507 360.158C283.942 364.743 280.488 372.22 281.348 381.686C282.514 394.388 277.295 403.797 269.743 413.023C262.813 421.483 257.365 431.269 250.969 440.232C246.316 446.76 241.325 453.048 236.171 459.142C234.722 460.857 232.281 462.091 230.101 462.594C225.786 463.589 223.019 461.074 224.076 456.627C226.418 446.886 222.18 440.987 214.77 436.437C207.883 432.207 200.942 428.079 194.175 423.644C186.852 418.842 186.177 413.869 192.388 407.546C196.649 403.191 201.846 399.852 206.314 395.714C211.599 390.821 216.698 385.687 221.613 380.394C224.293 377.513 224.588 374.095 222.071 370.596C218.409 365.52 217.919 359.953 219.434 353.813C220.959 347.628 220.098 346.908 213.887 347.4C206.27 348.005 204.614 346.371 204.494 338.231C204.44 334.801 204.44 331.371 204.2 327.964C203.971 324.626 202.271 323.185 199.035 324.306C198.523 324.489 198.011 324.729 197.488 324.843C185.229 327.495 179.584 322.762 180.554 309.718C181.197 301.018 182.941 292.409 184.183 283.754C184.368 282.44 184.553 281.113 184.64 279.787C185.512 265.794 180.314 259.289 167.086 257.711C155.677 256.35 153.65 254.647 154.653 242.688C155.426 233.417 151.809 228.238 144.246 225.105C135.322 221.401 126.507 217.297 117.353 214.336C105.411 210.471 100.278 201.748 99.0362 189.527C98.8074 187.275 98.5458 185.022 98.0882 180.884L98.0991 180.849ZM48.4429 49.7405C48.018 54.1649 48.7371 58.6351 47.0373 61.5504C44.6836 65.5975 45.5335 67.6439 47.9526 70.948C50.4697 74.3663 53.4772 78.7564 53.4009 82.6549C53.183 93.2644 51.4613 103.84 50.2845 114.426C49.914 117.719 48.5846 120.966 44.9887 120.314C37.3501 118.942 31.673 124.544 24.8298 125.893C23.0428 126.247 21.4519 128.534 20.1007 130.226C18.1284 132.695 16.3849 135.382 14.6632 138.046C13.9986 139.075 12.9634 140.607 13.2576 141.43C14.9139 145.946 12.2224 148.072 9.44374 150.439C5.23763 153.994 4.55114 158.396 7.76565 162.877C11.1327 167.588 14.6415 172.229 18.4989 176.505C27.5649 186.566 27.6521 186.406 37.8732 178.254C39.257 177.145 41.9049 176.174 43.0818 176.837C44.3894 177.568 44.956 180.221 45.3265 182.153C45.5989 183.559 45.065 185.148 44.847 186.657C43.9426 192.888 44.8906 194.523 50.8729 194.351C61.5516 194.031 71.5221 191.116 80.5445 184.691C85.0013 181.524 89.883 178.792 94.9172 176.825C100.05 174.825 102.806 177.008 103.667 182.644C104.245 186.394 104.452 190.213 104.964 193.974C105.923 200.937 109.137 205.67 115.937 208.002C125.744 211.363 135.366 215.342 144.977 219.332C155.437 223.665 161.866 230.398 159.415 243.729C158.063 251.057 160.145 252.543 167.511 252.863C168.601 252.909 169.69 252.818 170.78 252.863C180.227 253.344 186.754 258.545 188.378 268.355C189.348 274.242 189.075 280.485 188.531 286.487C187.746 295.187 185.839 303.773 185.142 312.473C184.63 318.795 187.724 321.265 193.543 320.327C194.96 320.099 196.3 319.435 197.684 318.99C204.385 316.829 207.687 318.647 209.125 325.918C209.768 329.199 209.474 332.686 209.561 336.081C209.616 338.071 209.561 340.071 209.561 342.346C211 342.346 211.882 342.369 212.765 342.346C225.132 341.9 226.832 344.393 224.195 356.866C223.509 360.124 224.457 364.32 225.928 367.429C229.295 374.518 229.84 378.233 224.882 384.087C219.978 389.872 214.269 394.948 208.689 400.081C204.603 403.831 199.939 406.906 195.94 410.748C191.952 414.577 192.246 416.67 196.877 419.539C203.426 423.609 210.193 427.279 216.807 431.235C226.179 436.837 231.638 444.554 228.892 456.569C228.848 456.775 229.273 457.118 230.287 458.444C233.675 454.386 237.25 450.739 240.094 446.554C247.46 435.728 253.573 423.781 261.941 413.926C271.193 403.031 277.927 392.238 276.39 376.884C275.606 369.041 279.115 362.273 285.881 358.226C296.735 351.732 307.609 345.239 318.811 339.454C322.08 337.762 326.559 337.739 330.34 338.242C340.081 339.522 348.505 337.67 354.52 328.959C360.687 320.03 366.8 311.032 372.554 301.818C380.726 288.727 386.218 274.814 385.913 258.568C385.717 248.37 387.264 238.104 388.299 227.906C388.779 223.253 391.1 220.795 396.188 220.395C399.392 220.143 403.348 217.971 405.342 215.319C414.549 203.086 423.43 190.567 431.875 177.751C434.763 173.373 437.214 167.976 437.781 162.786C438.925 152.348 435.297 137.463 422.024 133.667C415.486 131.792 408.567 127.596 404.089 122.326C394.87 111.465 383.657 107.315 370.516 104.937C358.944 102.845 347.971 98.0546 335.941 102.868C331.593 104.606 328.684 101.05 330.373 96.4312C332.072 91.7553 330.634 89.0915 326.82 87.3194C315.074 81.8775 303.164 76.79 291.537 71.0737C287.636 69.153 283.909 66.2034 280.989 62.8765C277.96 59.4353 276.205 54.8051 273.514 50.9981C271.607 48.3 269.471 45.0989 266.725 43.8641C260.656 41.1318 258.814 36.3415 257.746 30.1336C256.918 25.3433 254.848 20.7932 253.649 17.1233C246.152 24.1886 239.516 30.7967 232.51 36.9131C228.728 40.2171 224.195 40.9488 219.161 39.4397C215.947 38.4794 212.122 37.8049 209.027 38.708C198.98 41.6577 189.141 45.3961 179.236 48.8488C177.002 49.6262 174.823 50.6208 172.567 51.2953C165.506 53.4332 161.071 51.1238 158.499 43.7613C155.546 35.3126 154.62 26.7724 158.118 18.1751C160.079 13.3277 157.933 9.4406 154.729 6.46812C151.242 3.22126 149.117 7.47419 147.101 9.24624C136.237 18.781 124.186 21.8564 110.51 17.6606C108.658 17.089 106.707 16.8604 103.58 16.2201C107.536 23.6627 107.721 32.18 116.177 35.3812C117.157 35.747 118.062 39.7484 117.332 40.9603C115.665 43.7384 113.333 46.5965 110.608 48.0485C104.485 51.3068 98.0337 53.9134 91.5829 56.4171C85.0993 58.9323 79.5202 57.2174 74.9763 51.6154C73.7559 50.1063 71.9035 48.037 70.3997 48.0828C62.8592 48.3343 55.3405 49.2146 48.432 49.8091L48.4429 49.7405Z" fill="black"/>
</svg>
