<svg width="443" height="463" viewBox="0 0 443 463" fill="none" xmlns="http://www.w3.org/2000/svg">
<path d="M97.1716 180.708C92.1918 183.429 87.7895 185.178 84.1065 187.979C73.5476 196.028 61.8772 199.663 48.9211 199.309C40.5525 199.08 38.1988 196.542 38.6564 187.888C38.7109 186.95 38.6564 186.013 38.6564 185.053C38.2315 185.098 37.8392 185.018 37.5886 185.178C27.847 191.512 24.4799 191.386 16.4381 182.663C11.284 177.084 6.6856 170.876 2.27245 164.622C-1.62855 159.101 -0.255568 151.955 4.47358 147.039C5.96642 145.484 6.46767 142.832 7.29582 140.637C7.62272 139.779 7.29582 138.556 7.76438 137.882C11.3058 132.84 14.03 126.209 18.8027 123.328C26.2015 118.858 34.2542 114.239 44.0939 115.142C45.3579 104.041 46.9379 92.8257 47.6898 81.5418C47.8532 79.1067 45.3252 76.1799 43.5055 73.962C38.2642 67.5826 38.1334 66.6223 41.7947 59.5455C42.5139 58.1507 42.4703 56.0014 42.1216 54.3551C40.8358 48.2958 42.5248 45.1061 48.4525 44.3516C55.4591 43.4598 62.5311 42.751 69.5812 42.751C71.8586 42.751 74.8007 44.6831 76.3044 46.6724C80.6086 52.3887 85.632 53.4976 91.7123 50.7195C98.4465 47.6442 105.126 44.4659 113.113 40.7389C104.113 34.7025 101.596 26.3109 98.7407 18.2167C96.7684 12.6376 98.7516 10.271 104.44 11.2199C107.654 11.7572 110.825 12.649 114.007 13.3807C123.596 15.5872 132.379 13.8265 140.224 7.48145C141.227 6.66974 142.229 5.83516 143.243 5.03488C147.078 2.00524 150.576 -2.4649 156.112 1.67369C161.484 5.69796 164.219 13.7008 161.931 19.8287C159.152 27.237 160.209 34.3824 162.519 41.5734C163.761 45.4262 166.148 47.1183 170.038 46.1236C171.443 45.7692 172.871 45.5063 174.244 45.0261C184.661 41.3677 194.969 37.2977 205.528 34.188C209.505 33.0219 214.213 33.3534 218.332 34.268C222.821 35.2627 226.809 35.0683 230.046 31.9129C235.439 26.6654 240.899 21.3606 245.497 15.3699C249.736 9.84801 254.029 9.25351 257.178 15.7015C259.619 20.709 260.633 26.4596 262.594 31.7529C263.389 33.8907 264.828 35.8915 266.353 37.5606C270.036 41.6077 275.267 44.7289 277.501 49.4619C283.352 61.832 293.399 67.2854 304.917 71.6412C312.719 74.5908 320.303 78.3864 327.625 82.5021C335.068 86.6979 335.438 88.1155 335.297 97.1244C347.86 92.6428 359.585 96.7929 371.397 100.428C373.991 101.229 376.737 101.606 379.439 101.88C387.524 102.692 394.269 105.916 399.957 112.273C407.356 120.538 416.215 126.689 426.491 130.713C437.224 134.909 440.591 144.867 442.204 155.534C443.577 164.611 441.278 172.9 435.895 180.205C430.675 187.282 425.358 194.267 420.247 201.424C416.88 206.134 413.731 211.027 410.636 215.943C407.291 221.26 403.216 225.467 396.786 225.707C393.398 225.833 392.33 227.799 392.101 230.726C391.404 239.632 390.096 248.572 390.314 257.467C390.684 272.706 386.947 286.517 379.156 299.116C371.953 310.754 364.543 322.267 356.709 333.436C350.454 342.342 341.42 345.486 331.145 343.623C325.468 342.594 320.346 343.371 315.399 346.229C307.456 350.825 299.654 355.695 291.579 360.017C283.014 364.601 279.56 372.078 280.421 381.545C281.587 394.246 276.367 403.655 268.816 412.881C261.886 421.341 256.437 431.128 250.041 440.091C245.388 446.619 240.397 452.907 235.243 459C233.794 460.715 231.353 461.95 229.174 462.453C224.859 463.448 222.091 460.932 223.148 456.485C225.491 446.745 221.252 440.845 213.842 436.295C206.956 432.065 200.014 427.938 193.248 423.502C185.925 418.7 185.249 413.727 191.46 407.405C195.721 403.049 200.919 399.711 205.386 395.572C210.671 390.679 215.771 385.546 220.685 380.253C223.366 377.372 223.66 373.953 221.143 370.455C217.482 365.379 216.991 359.811 218.506 353.672C220.032 347.487 219.171 346.767 212.96 347.258C205.343 347.864 203.687 346.229 203.567 338.089C203.512 334.659 203.512 331.23 203.272 327.823C203.044 324.484 201.344 323.044 198.107 324.164C197.595 324.347 197.083 324.587 196.56 324.702C184.301 327.354 178.657 322.621 179.627 309.576C180.27 300.876 182.013 292.267 183.255 283.613C183.441 282.298 183.626 280.972 183.713 279.646C184.585 265.652 179.387 259.147 166.158 257.569C154.75 256.209 152.723 254.506 153.725 242.547C154.499 233.275 150.881 228.096 143.319 224.964C134.395 221.26 125.579 217.155 116.426 214.194C104.483 210.33 99.3509 201.607 98.1087 189.385C97.8799 187.133 97.6184 184.881 97.1607 180.742L97.1716 180.708ZM47.5154 49.5991C47.0905 54.0235 47.8096 58.4937 46.1098 61.409C43.7561 65.4561 44.606 67.5026 47.0251 70.8066C49.5422 74.2249 52.5497 78.615 52.4734 82.5136C52.2555 93.123 50.5338 103.698 49.357 114.285C48.9865 117.577 47.6571 120.824 44.0612 120.173C36.4226 118.801 30.7455 124.403 23.9023 125.752C22.1153 126.106 20.5244 128.393 19.1732 130.085C17.2009 132.554 15.4574 135.241 13.7358 137.904C13.0711 138.933 12.0359 140.465 12.3301 141.289C13.9864 145.804 11.2949 147.931 8.51625 150.297C4.31014 153.853 3.62364 158.255 6.83816 162.736C10.2052 167.446 13.714 172.088 17.5714 176.364C26.6374 186.424 26.7246 186.264 36.9457 178.113C38.3295 177.004 40.9774 176.032 42.1543 176.695C43.4619 177.427 44.0285 180.079 44.399 182.011C44.6714 183.418 44.1375 185.007 43.9195 186.516C43.0151 192.747 43.9631 194.381 49.9454 194.21C60.6241 193.89 70.5946 190.975 79.617 184.549C84.0738 181.383 88.9555 178.65 93.9898 176.684C99.1221 174.683 101.879 176.867 102.74 182.503C103.317 186.253 103.524 190.071 104.036 193.833C104.995 200.795 108.21 205.528 115.009 207.861C124.816 211.222 134.438 215.2 144.049 219.19C154.51 223.523 160.939 230.257 158.487 243.587C157.136 250.916 159.217 252.402 166.583 252.722C167.673 252.768 168.763 252.676 169.852 252.722C179.3 253.202 185.827 258.404 187.451 268.213C188.42 274.101 188.148 280.343 187.603 286.345C186.819 295.046 184.912 303.631 184.214 312.332C183.702 318.654 186.797 321.123 192.616 320.186C194.032 319.957 195.372 319.294 196.756 318.848C203.458 316.687 206.759 318.505 208.198 325.776C208.841 329.057 208.546 332.544 208.634 335.94C208.688 337.929 208.634 339.93 208.634 342.205C210.072 342.205 210.955 342.228 211.837 342.205C224.205 341.759 225.905 344.251 223.268 356.724C222.581 359.983 223.529 364.178 225 367.288C228.368 374.376 228.912 378.092 223.954 383.945C219.051 389.73 213.341 394.806 207.762 399.94C203.676 403.689 199.012 406.765 195.013 410.606C191.025 414.436 191.319 416.528 195.95 419.398C202.499 423.468 209.266 427.138 215.88 431.093C225.251 436.695 230.71 444.412 227.964 456.428C227.921 456.634 228.346 456.977 229.359 458.303C232.748 454.244 236.322 450.597 239.166 446.413C246.532 435.586 252.645 423.639 261.014 413.784C270.265 402.889 276.999 392.097 275.463 376.743C274.678 368.9 278.187 362.132 284.954 358.085C295.807 351.591 306.682 345.097 317.884 339.313C321.153 337.62 325.631 337.598 329.412 338.101C339.154 339.381 347.577 337.529 353.592 328.817C359.76 319.889 365.873 310.891 371.626 301.676C379.799 288.586 385.29 274.673 384.985 258.427C384.789 248.229 386.337 237.963 387.372 227.765C387.851 223.112 390.172 220.654 395.261 220.253C398.465 220.002 402.42 217.83 404.414 215.177C413.622 202.945 422.503 190.426 430.948 177.61C433.835 173.231 436.287 167.835 436.854 162.645C437.998 152.207 434.369 137.321 421.097 133.526C414.559 131.651 407.64 127.455 403.161 122.185C393.942 111.324 382.73 107.174 369.588 104.796C358.016 102.704 347.043 97.9133 335.013 102.726C330.665 104.464 327.756 100.909 329.445 96.2898C331.145 91.6139 329.707 88.9501 325.893 87.1781C314.146 81.7362 302.236 76.6486 290.609 70.9324C286.708 69.0117 282.982 66.0621 280.061 62.7352C277.032 59.294 275.278 54.6638 272.586 50.8567C270.679 48.1586 268.544 44.9575 265.798 43.7228C259.728 40.9904 257.887 36.2001 256.819 29.9922C255.991 25.202 253.92 20.6518 252.722 16.9819C245.225 24.0473 238.589 30.6553 231.582 36.7718C227.801 40.0758 223.268 40.8075 218.234 39.2984C215.019 38.338 211.194 37.6635 208.1 38.5667C198.053 41.5163 188.213 45.2547 178.308 48.7074C176.074 49.4848 173.895 50.4794 171.639 51.154C164.578 53.2919 160.143 50.9825 157.572 43.6199C154.619 35.1712 153.693 26.631 157.19 18.0337C159.152 13.1863 157.005 9.29923 153.802 6.32676C150.315 3.07991 148.19 7.33283 146.174 9.10488C135.31 18.6396 123.258 21.715 109.583 17.5193C107.73 16.9476 105.78 16.719 102.653 16.0788C106.608 23.5214 106.793 32.0387 115.249 35.2398C116.23 35.6056 117.134 39.607 116.404 40.8189C114.737 43.597 112.405 46.4552 109.681 47.9071C103.557 51.1654 97.1062 53.772 90.6554 56.2758C84.1719 58.7909 78.5927 57.076 74.0488 51.4741C72.8284 49.965 70.976 47.8957 69.4722 47.9414C61.9317 48.1929 54.413 49.0732 47.5045 49.6677L47.5154 49.5991Z" fill="#F7D19F"/>
</svg>
