<svg width="46" height="46" viewBox="0 0 46 46" fill="none" xmlns="http://www.w3.org/2000/svg">
<path d="M22.9284 36.7775C23.082 36.923 23.2867 37 23.5 37C23.7133 37 23.918 36.923 24.0716 36.7775C24.5152 36.3667 35 26.7396 35 20.5355C35 14.3313 29.8386 9 23.5 9C17.1614 9 12 14.1687 12 20.5355C12 26.9022 22.4677 36.3582 22.9284 36.7775ZM23.5 10.7029C28.9002 10.7029 33.2938 15.11 33.2938 20.5269C33.2938 25.2164 25.6925 32.8582 23.5 34.9633C21.3075 32.8582 13.7062 25.2249 13.7062 20.5269C13.7062 15.11 18.0998 10.7029 23.5 10.7029Z" fill="#A66559"/>
<path d="M29.6766 20.5355C29.6766 17.121 26.9039 14.3399 23.5 14.3399C20.0961 14.3399 17.3234 17.121 17.3234 20.5355C17.3234 23.9499 20.0961 26.7311 23.5 26.7311C26.9039 26.7311 29.6766 23.9499 29.6766 20.5355ZM19.0297 20.5355C19.0297 18.0623 21.0345 16.0513 23.5 16.0513C25.9655 16.0513 27.9703 18.0623 27.9703 20.5355C27.9703 23.0086 25.9655 25.0196 23.5 25.0196C21.0345 25.0196 19.0297 23.0086 19.0297 20.5355Z" fill="#A66559"/>
<path d="M23 3.14482C33.9417 3.14482 42.8552 12.0583 42.8552 23C42.8552 33.9417 33.9417 42.8552 23 42.8552C12.0583 42.8552 3.14482 33.9417 3.14482 23C3.14482 12.0583 12.0583 3.14482 23 3.14482ZM23 0C10.2905 0 0 10.2905 0 23C0 35.7095 10.2905 46 23 46C35.7095 46 46 35.7095 46 23C46 10.2905 35.7095 0 23 0Z" fill="#A66559"/>
</svg>
