<svg width="85" height="25" viewBox="0 0 85 25" fill="none" xmlns="http://www.w3.org/2000/svg">
<g id="Camada_1" clip-path="url(#clip0_102_33)">
<path id="Vector" d="M73.1008 0.871094H12.5078C6.08536 0.871094 0.878967 6.10332 0.878967 12.5576C0.878967 19.0119 6.08536 24.2441 12.5078 24.2441H73.1008C79.5232 24.2441 84.7296 19.0119 84.7296 12.5576C84.7296 6.10332 79.5232 0.871094 73.1008 0.871094Z" fill="#FFF7EE"/>
<g id="Group">
<path id="Vector_2" d="M17.2226 12.5576H60.2058" stroke="#A66559" stroke-linecap="round" stroke-linejoin="round"/>
<path id="Vector_3" d="M60.3891 12.5578V8.58978C60.3891 8.15446 60.8722 7.86984 61.2388 8.08749L64.6541 10.0799L68.0694 12.0723C68.4526 12.2899 68.4526 12.8425 68.0694 13.0601L64.6541 15.0525L61.2388 17.0449C60.8556 17.2626 60.3891 16.9947 60.3891 16.5426V12.5746V12.5578Z" fill="#A66559"/>
</g>
</g>
<defs>
<clipPath id="clip0_102_33">
<rect width="83.8507" height="23.373" fill="white" transform="translate(0.878967 0.871094)"/>
</clipPath>
</defs>
</svg>
