<svg width="60" height="60" viewBox="0 0 60 60" fill="none" xmlns="http://www.w3.org/2000/svg">
<g id="whats" clip-path="url(#clip0_54_37)">
<path id="Vector" d="M30 4.10194C44.2718 4.10194 55.8981 15.7282 55.8981 30C55.8981 44.2718 44.2718 55.8981 30 55.8981C15.7282 55.8981 4.10194 44.2718 4.10194 30C4.10194 15.7282 15.7282 4.10194 30 4.10194ZM30 0C13.4223 0 0 13.4223 0 30C0 46.5777 13.4223 60 30 60C46.5777 60 60 46.5777 60 30C60 13.4223 46.5777 0 30 0Z" fill="#FFF7EE"/>
<path id="Vector_2" fill-rule="evenodd" clip-rule="evenodd" d="M14.1505 45.9222C14.3447 45.1941 14.4903 44.5873 14.6602 43.9562C15.2185 41.9659 15.7767 39.9756 16.2864 37.9611C16.3592 37.6698 16.335 37.2572 16.1893 36.9902C11.1165 27.33 16.3592 15.631 26.9903 13.131C36.6505 10.8737 45.3398 17.3785 46.9175 26.0921C48.568 35.1941 42.6214 43.8348 33.5922 45.4125C30 46.0436 26.5777 45.5096 23.301 43.9077C23.0097 43.762 22.5971 43.7135 22.2816 43.7863C17.9126 44.8785 15.0243 45.7038 14.1262 45.8737L14.1505 45.9222ZM17.9854 42.1358C19.6359 41.6989 21.1408 41.3348 22.6456 40.8979C23.0583 40.7766 23.3981 40.8494 23.7621 41.0678C26.6019 42.6941 29.6359 43.3009 32.8884 42.7911C40.3641 41.6018 45.4854 34.5873 44.3447 27.1358C43.1554 19.4174 35.9223 14.2232 28.2767 15.631C19.0291 17.33 14.1019 27.6455 18.7136 35.8251C19.2233 36.7232 19.3689 37.4756 19.0291 38.4465C18.6165 39.6115 18.3738 40.8251 18.0097 42.1358H17.9854Z" fill="#FFF7EE"/>
<path id="Vector_3" fill-rule="evenodd" clip-rule="evenodd" d="M35.0243 37.0874C31.8204 36.9661 26.6748 34.4418 23.1796 28.3496C21.9418 26.1894 22.1117 23.7136 23.9321 22.0146C24.5388 21.4321 25.3155 21.5777 26.0437 21.6991C26.2136 21.7234 26.4078 21.9903 26.5049 22.2088C26.966 23.2768 27.4272 24.3447 27.8398 25.4369C28.0583 26.0195 27.6699 26.5535 26.8204 27.5001C26.5534 27.7913 26.5049 28.0826 26.699 28.4467C28.0583 30.7282 29.9272 32.3787 32.4272 33.3496C32.7913 33.4952 33.0583 33.3981 33.301 33.1069C34.6117 31.5049 34.7573 31.0437 35.4369 31.3593C38.7622 32.9612 39.0291 33.0098 39.0291 33.3981C39.1505 36.2137 36.5777 37.2088 35 37.0874H35.0243Z" fill="#FFF7EE"/>
</g>
<defs>
<clipPath id="clip0_54_37">
<rect width="60" height="60" fill="white"/>
</clipPath>
</defs>
</svg>
