<svg width="46" height="46" viewBox="0 0 46 46" fill="none" xmlns="http://www.w3.org/2000/svg">
<g id="whats" clip-path="url(#clip0_24_49)">
<path id="Vector" d="M23 3.14482C33.9417 3.14482 42.8552 12.0583 42.8552 23C42.8552 33.9417 33.9417 42.8552 23 42.8552C12.0583 42.8552 3.14482 33.9417 3.14482 23C3.14482 12.0583 12.0583 3.14482 23 3.14482ZM23 0C10.2905 0 0 10.2905 0 23C0 35.7095 10.2905 46 23 46C35.7095 46 46 35.7095 46 23C46 10.2905 35.7095 0 23 0Z" fill="#A66559"/>
<path id="Vector_2" fill-rule="evenodd" clip-rule="evenodd" d="M10.8487 35.2066C10.9976 34.6484 11.1092 34.1832 11.2395 33.6994C11.6675 32.1735 12.0955 30.6476 12.4862 29.1031C12.5421 28.8798 12.5235 28.5634 12.4118 28.3587C8.52265 20.9526 12.5421 11.9833 20.6926 10.0667C28.0987 8.33609 34.7605 13.3231 35.9701 20.0036C37.2354 26.9817 32.6764 33.6063 25.754 34.8159C23 35.2997 20.3762 34.8903 17.8641 33.6621C17.6408 33.5505 17.3244 33.5133 17.0825 33.5691C13.733 34.4065 11.5186 35.0392 10.8301 35.1694L10.8487 35.2066ZM13.7888 32.3037C15.0542 31.9688 16.2079 31.6897 17.3616 31.3547C17.678 31.2617 17.9385 31.3175 18.2176 31.485C20.3948 32.7317 22.7209 33.1969 25.2144 32.8062C30.9458 31.8943 34.8722 26.5165 33.9976 20.8037C33.0858 14.8863 27.5405 10.9041 21.6788 11.9833C14.589 13.2859 10.8115 21.1945 14.3471 27.4655C14.7379 28.1541 14.8495 28.7309 14.589 29.4752C14.2727 30.3685 14.0866 31.2989 13.8074 32.3037H13.7888Z" fill="#A66559"/>
<path id="Vector_3" fill-rule="evenodd" clip-rule="evenodd" d="M26.8519 28.433C24.3956 28.34 20.4507 26.4047 17.771 21.734C16.822 20.0778 16.9523 18.1798 18.3479 16.8772C18.8131 16.4306 19.4086 16.5422 19.9668 16.6353C20.0971 16.6539 20.246 16.8586 20.3204 17.0261C20.674 17.8448 21.0275 18.6636 21.3439 19.501C21.5113 19.9476 21.2136 20.357 20.5623 21.0827C20.3576 21.306 20.3204 21.5293 20.4693 21.8084C21.5113 23.5576 22.9442 24.823 24.8608 25.5673C25.14 25.679 25.3447 25.6045 25.5307 25.3812C26.5356 24.1531 26.6473 23.7995 27.1683 24.0414C29.7176 25.2696 29.9223 25.3068 29.9223 25.6045C30.0154 27.7631 28.0429 28.5261 26.8333 28.433H26.8519Z" fill="#A66559"/>
</g>
<defs>
<clipPath id="clip0_24_49">
<rect width="46" height="46" fill="white"/>
</clipPath>
</defs>
</svg>
